<svg id="Layer_1" data-name="Layer 1" xmlns="http://www.w3.org/2000/svg" viewBox="0 0 16 16">
  <title>
    _
  </title>
  <circle cx="8" cy="8" r="2.5" stroke-linejoin="round"/>
  <path d="M13.53 6.6a5.67 5.67 0 0 0-.63-1.53l1.22-1.56-.81-.81-.82-.82-1.57 1.22a5.67 5.67 0 0 0-1.52-.63L9.16.5H6.84l-.24 2a5.67 5.67 0 0 0-1.53.63L3.51 1.88l-.81.81-.82.82L3.1 5.08a5.67 5.67 0 0 0-.63 1.52l-2 .24v2.31l2 .24a5.67 5.67 0 0 0 .63 1.53l-1.22 1.57.81.81.82.82 1.57-1.22a5.67 5.67 0 0 0 1.53.63l.24 2h2.31l.24-2a5.67 5.67 0 0 0 1.53-.63l1.56 1.22.81-.81.82-.82-1.22-1.57a5.67 5.67 0 0 0 .63-1.53l2-.24v-2.3z" stroke-linejoin="round"/>
</svg>
