<svg id="Layer_1" data-name="Layer 1" xmlns="http://www.w3.org/2000/svg" viewBox="0 0 30 30"><title>administration_32x32</title><path d="M21.65,25.48l3,2.36,1.57-1.57,1.58-1.58h0l-2.36-3A11.21,11.21,0,0,0,26.7,18.7l3.8-.47V13.77h0l-3.8-.47a11.21,11.21,0,0,0-1.23-2.95l2.36-3L26.26,5.76,24.68,4.18h0l-3,2.36A11.21,11.21,0,0,0,18.7,5.3l-.47-3.8H13.76L13.3,5.3a11.21,11.21,0,0,0-2.95,1.23l-3-2.36L5.76,5.74,4.18,7.32h0l2.36,3A11.21,11.21,0,0,0,5.3,13.3l-3.8.47v4.46h0l3.8.47a11.21,11.21,0,0,0,1.23,2.95l-2.36,3,1.57,1.57,1.58,1.58h0l3-2.36" transform="translate(-1 -1)" fill="none" stroke="#4c6472" stroke-linejoin="round"/><path d="M22.08,16a6.1,6.1,0,0,0-3.74-5.61v6.08H13.66V10.39a6.07,6.07,0,0,0-.94,10.73V30.5h6.55V21.11A6.08,6.08,0,0,0,22.08,16Z" transform="translate(-1 -1)" fill="none" stroke="#4c6472" stroke-linejoin="round"/></svg>