<svg xmlns="http://www.w3.org/2000/svg" viewBox="0 0 31 31"><title>asset_ingestion_32x32</title><polygon points="22.5 19.41 22.5 11.07 15.5 6.9 8.5 11.07 8.5 19.41 15.5 23.59 22.5 19.41" fill="none" stroke="#4d6472" stroke-linejoin="round"/><polyline points="8.5 11.34 15.5 15.51 22.5 11.34" fill="none" stroke="#4d6472" stroke-linejoin="round"/><polyline points="15.5 15 15.5 15.46 15.5 15.51 15.5 16 15.5 23.59" fill="none" stroke="#4d6472" stroke-linejoin="round"/><polyline points="15.5 16 15.5 15.46 22.5 11.34 22.5 11.07 15.5 6.9 8.5 11.07 8.5 11.34 8.5 11.34 15.5 15.51 22.5 11.34" fill="none" stroke="#4d6472" stroke-linejoin="round"/><circle cx="3" cy="3" r="2.5" fill="none" stroke="#4d6472" stroke-linejoin="round"/><line x1="8.5" y1="8.5" x2="4.77" y2="4.77" fill="none" stroke="#4d6472" stroke-linejoin="round"/><circle cx="28" cy="3" r="2.5" fill="none" stroke="#4d6472" stroke-linejoin="round"/><line x1="22.5" y1="8.5" x2="26.23" y2="4.77" fill="none" stroke="#4d6472" stroke-linejoin="round"/><circle cx="28" cy="28" r="2.5" fill="none" stroke="#4d6472" stroke-linejoin="round"/><line x1="22.5" y1="22.5" x2="26.23" y2="26.23" fill="none" stroke="#4d6472" stroke-linejoin="round"/><circle cx="3" cy="28" r="2.5" fill="none" stroke="#4d6472" stroke-linejoin="round"/><line x1="8.5" y1="22.5" x2="4.77" y2="26.23" fill="none" stroke="#4d6472" stroke-linejoin="round"/></svg>