<svg id="Layer_1" data-name="Layer 1" xmlns="http://www.w3.org/2000/svg" viewBox="0 0 30 30"><title>deployments_32x32</title><polyline points="9.95 15.11 7 12.16 3.61 14.2 0.5 11.08 3.21 8.36 15.2 6.63" fill="none" stroke="#4c6472" stroke-linejoin="round"/><path d="M11.8,17l5,5a133,133,0,0,0,10.89-9.49,9,9,0,0,0,2-10.19,9,9,0,0,0-10.19,2A133,133,0,0,0,10,15.2L11.8,17" transform="translate(-1 -1)" fill="none" stroke="#4c6472" stroke-linejoin="round"/><circle cx="23.02" cy="8.98" r="2.81" transform="translate(-0.61 17.91) rotate(-45)" fill="none" stroke="#4c6472" stroke-linejoin="round"/><line x1="13.74" y1="22.47" x2="7.53" y2="16.26" fill="none" stroke="#4c6472" stroke-linejoin="round"/><polyline points="22.9 14.88 21.64 26.79 18.92 29.5 15.8 26.39 17.84 23 15.85 21.01" fill="none" stroke="#4c6472" stroke-linejoin="round"/><path d="M4.49,22.06a3.54,3.54,0,0,1,5,5C7.7,28.86,3.05,28.5,3.05,28.5S2.7,23.85,4.49,22.06Z" transform="translate(-1 -1)" fill="none" stroke="#4c6472" stroke-miterlimit="10"/></svg>