<svg id="Layer_1" data-name="Layer 1" xmlns="http://www.w3.org/2000/svg" viewBox="0 0 16 16"><title>_</title><circle cx="8" cy="8" r="2.5" fill="none" stroke="#4c6472" stroke-linejoin="round"/><path d="M13.53,6.6a5.67,5.67,0,0,0-.63-1.53l1.22-1.56-.81-.81-.82-.82h0L10.92,3.1A5.67,5.67,0,0,0,9.4,2.47L9.16.5H6.84l-.24,2a5.67,5.67,0,0,0-1.53.63L3.51,1.88l-.81.81-.82.82h0L3.1,5.08A5.67,5.67,0,0,0,2.47,6.6l-2,.24V9.15h0l2,.24a5.67,5.67,0,0,0,.63,1.53L1.88,12.49l.81.81.82.82h0L5.08,12.9a5.67,5.67,0,0,0,1.53.63l.24,2H9.16l.24-2a5.67,5.67,0,0,0,1.53-.63l1.56,1.22.81-.81.82-.82h0L12.9,10.92a5.67,5.67,0,0,0,.63-1.53l2-.24V6.85h0Z" fill="none" stroke="#4c6472" stroke-linejoin="round"/></svg>