<svg id="Layer_1" data-name="Layer 1" xmlns="http://www.w3.org/2000/svg" viewBox="0 0 25.03 30.09">
  <title>
    boiler_32x32
  </title>
  <ellipse cx="11" cy="3.5" rx="10.5" ry="3" stroke-linejoin="round"/>
  <path stroke-linejoin="round" d="M21.5 11.09V3.5"/>
  <path d="M25.5 26v1.5c0 1.66-4.7 3-10.5 3s-10.5-1.34-10.5-3V4.41" transform="translate(-4 -.91)" stroke-linejoin="round"/>
  <circle cx="11" cy="13" r="3.5" stroke-linejoin="round"/>
  <path stroke-linejoin="round" d="M11 13.5l1.5-2"/>
  <path d="M28.53 20a3.53 3.53 0 0 1-7.07 0c0-2.05 1.58-2.61 1.58-4.29a10.43 10.43 0 0 1 1.68 2.24A4.42 4.42 0 0 0 25.84 14a7.38 7.38 0 0 1 2.69 6z" transform="translate(-4 -.91)" stroke-linejoin="round"/>
</svg>
