<svg id="Layer_1" data-name="Layer 1" xmlns="http://www.w3.org/2000/svg" viewBox="0 0 30.06 30">
  <title>
    cooling_tower_32x32
  </title>
  <path d="M5.44 30.5h-4V16a5.5 5.5 0 0 1 5.5-5.5h5.5v4h-4.5a2.5 2.5 0 0 0-2.5 2.5z" transform="translate(-.94 -1)" stroke-linejoin="round"/>
  <path stroke-linejoin="round" d="M14.06 6.5l-2-6h12l-2 6h-8zM28.53 13V6.5h-20V10m.05 4v15.5h20V23"/>
  <path d="M31 15.5c-1.83 0-1.83 2-3.66 2s-1.83-2-3.67-2-1.83 2-3.67 2m11 2c-1.83 0-1.83 2-3.66 2s-1.83-2-3.67-2-1.83 2-3.67 2" transform="translate(-.94 -1)" stroke-linejoin="round"/>
</svg>
