<svg xmlns="http://www.w3.org/2000/svg" viewBox="0 0 30 27.2">
  <title>
    imaging_machine_32x32
  </title>
  <path d="M23.4 20.8c-1 3.9-3.2 6.6-5.7 6.6-3.5 0-6.4-5.2-6.4-11.6s2.8-11.6 6.4-11.6c3.2 0 5.9 4.4 6.3 10.1" stroke-linecap="round" stroke-linejoin="round"/>
  <path d="M19.8 20.8a2.63 2.63 0 0 1-2.2 1.4c-1.9 0-3.5-2.9-3.5-6.4s1.6-6.4 3.5-6.4c1.6 0 3 2 3.4 4.8" stroke-linecap="round" stroke-linejoin="round"/>
  <path d="M18 27.4c-2.4 0-10.4-1.6-10.4-1.6-3.2-.9-6.4-5.2-6.4-11.6S5 2.7 8.5 2.7L18 4.2" stroke-linecap="round" stroke-linejoin="round"/>
  <path stroke-linejoin="round" d="M14.3 17.9l13.2 2 2.7-2.3L14.1 15m11.7 4.9v8.6"/>
  <path stroke-linecap="round" stroke-linejoin="round" d="M28.4 28.9l-5.2-.8"/>
</svg>
