<?xml version="1.0" encoding="utf-8"?>
<!--Generator: Adobe Illustrator 21.0.2, SVG Export Plug-In . SVG Version: 6.00 Build 0)-->
<svg id="Layer_1" xmlns="http://www.w3.org/2000/svg" viewBox="0 0 32 32">
  <style>
    .st0{fill:none;stroke:#4C6472;stroke-linecap:round;stroke-linejoin:round;} .st1{fill:none;stroke:#4C6472;stroke-linejoin:round;}
  </style>
  <title>
    light_bulb_32x32
  </title>
  <path d="M24.5 10c0-4.7-3.8-8.5-8.5-8.5S7.5 5.3 7.5 10c0 2.6 1.2 5.1 3.3 6.7 1.1.8 1.7 2 1.7 3.4v6.7c0 .4.3.7.7.7h5.6c.4 0 .7-.3.7-.7v-6.7c0-1.4.7-2.6 1.8-3.4 2-1.6 3.2-4.1 3.2-6.7zm-6 18c0 1.4-1.1 2.5-2.5 2.5s-2.5-1.1-2.5-2.5m-1-6.5h7m-7 3h7"/>
</svg>
