<svg id="Layer_1" data-name="Layer 1" xmlns="http://www.w3.org/2000/svg" viewBox="0 0 23 30">
  <title>
    line_og_32x32
  </title>
  <path d="M27 19.38a11 11 0 1 1-22 0c0-8.18 8.65-13 11-17.88 2.39 4.83 11 9.71 11 17.88z" transform="translate(-4.5 -1)" stroke-linecap="round" stroke-linejoin="round"/>
  <path d="M22.05 24.39a6.05 6.05 0 1 1-12.1 0c0-3.55 2.7-4.52 2.7-7.42a18 18 0 0 1 2.87 3.87 7.7 7.7 0 0 0 1.91-6.77 12.8 12.8 0 0 1 4.62 10.32z" transform="translate(-4.5 -1)" stroke-linecap="round" stroke-linejoin="round"/>
</svg>
