<svg id="Layer_1" data-name="Layer 1" xmlns="http://www.w3.org/2000/svg" viewBox="0 0 24 29.81">
  <title>
    machine_32x32
  </title>
  <path d="M4.5 18.81C4.5 9.25 9.65 1.5 16 1.5s11.5 7.75 11.5 17.31" transform="translate(-4 -1)" stroke-miterlimit="10"/>
  <circle cx="12" cy="17.81" r="2.34" stroke-miterlimit="10"/>
  <path d="M16 30.31a11.5 11.5 0 1 1 11.5-11.5A11.51 11.51 0 0 1 16 30.31zm-.41-13.99c-1.74-2.2-1.12-5.93-1.12-5.93m3 6.36c.32-2.79 3.4-5 3.4-5m-2.38 6.64c2.2-1.74 5.93-1.12 5.93-1.12m-6.37 3c2.79.32 5 3.4 5 3.4m-6.64-2.38c1.74 2.2 1.12 5.93 1.12 5.93m-3-6.36c-.32 2.79-3.4 5-3.4 5m2.38-6.64c-2.2 1.74-5.93 1.12-5.93 1.12m6.37-3c-2.79-.32-5-3.4-5-3.4" transform="translate(-4 -1)" stroke-miterlimit="10"/>
</svg>
