<?xml version="1.0" encoding="utf-8"?>
<!--Generator: Adobe Illustrator 21.0.2, SVG Export Plug-In . SVG Version: 6.00 Build 0)-->
<svg id="Layer_1" xmlns="http://www.w3.org/2000/svg" viewBox="0 0 32 32">
  <style>
    .st0{fill:none;stroke:#4C6472;stroke-linejoin:round;} .st1{fill:none;stroke:#4C6472;stroke-miterlimit:10;}
  </style>
  <title>
    wind_turbine_32x32
  </title>
  <circle cx="15.9" cy="14.1" r="2.3"/>
  <path d="M14.5 18.8l-1.7 11.7m6.4 0l-1.8-11.7m-1.8-7l-1.4-1.9c-.4-.6-.5-1.3-.1-1.9l3.2-6.5h1.9l-1.9 10.8m.8 2.7l2.3-.2c.7-.1 1.4.3 1.7.8l4 6-.9 1.6-8.4-7m-2.7-.6l-1 2.1c-.3.6-1.2.7-1.9.7l-7 .8-.9-1.6 10.3-3.8M9 30.5h14"/>
</svg>
