<svg id="Layer_1" data-name="Layer 1" xmlns="http://www.w3.org/2000/svg" viewBox="0 0 30 30">
  <title>
    deployments_32x32
  </title>
  <path stroke-linejoin="round" d="M9.95 15.11L7 12.16 3.61 14.2.5 11.08l2.71-2.72L15.2 6.63"/>
  <path d="M11.8 17l5 5a133 133 0 0 0 10.89-9.49 9 9 0 0 0 2-10.19 9 9 0 0 0-10.19 2A133 133 0 0 0 10 15.2l1.8 1.8" transform="translate(-1 -1)" stroke-linejoin="round"/>
  <circle cx="23.02" cy="8.98" r="2.81" transform="rotate(-45 21.314 9.691)" stroke-linejoin="round"/>
  <path stroke-linejoin="round" d="M13.74 22.47l-6.21-6.21m15.37-1.38l-1.26 11.91-2.72 2.71-3.12-3.11L17.84 23l-1.99-1.99"/>
  <path d="M4.49 22.06a3.54 3.54 0 0 1 5 5c-1.79 1.8-6.44 1.44-6.44 1.44s-.35-4.65 1.44-6.44z" transform="translate(-1 -1)" stroke-miterlimit="10"/>
</svg>
