<svg id="Layer_1" data-name="Layer 1" xmlns="http://www.w3.org/2000/svg" viewBox="0 0 16 16"><title>_</title><path d="M7.67,5.61a1,1,0,0,1,0-1.41l3.4-3.4a1,1,0,0,1,1.41,0l2.72,2.72a1,1,0,0,1,0,1.41l-3.4,3.4a1,1,0,0,1-1.41,0" fill="none" stroke="#4c6472" stroke-linejoin="round"/><path d="M8.33,10.39a1,1,0,0,1,0,1.41l-3.4,3.4a1,1,0,0,1-1.41,0L.79,12.49a1,1,0,0,1,0-1.41l3.4-3.4a1,1,0,0,1,1.41,0" fill="none" stroke="#4c6472" stroke-linejoin="round"/><line x1="11.44" y1="4.56" x2="4.56" y2="11.44" fill="none" stroke="#4c6472" stroke-linejoin="round"/></svg>