<svg id="Layer_1" data-name="Layer 1" xmlns="http://www.w3.org/2000/svg" viewBox="0 0 29.09 31">
  <title>
    airport_32x32
  </title>
  <path stroke-linejoin="round" d="M6.84 21.5h19.94l1.81 9H7.75m-4.53-18L.5 9.5h9.06l-2.72 3m-5.78-3v-5m7.98 5v-5m-8.99 0h9.97m-4.99 0V0m21.3 21.5h2.72"/>
  <path d="M16.61 16l-3.33-4.9 3.29.45 9.37-6.89a2.8 2.8 0 0 1 4.06.88v.09l-5.73 4.62 1 5.77-2 1.85-2-5.44z" transform="translate(-1.45)" stroke-linejoin="round"/>
  <path stroke-linejoin="round" d="M20.95 7.28l-5.23-2.55-2.13 1.53 4.16 3.37M7.05 27.5v-15H3.08v15H1.41l-.91 3h9.06l-.9-3H7.05z"/>
</svg>
