<svg id="Layer_1" data-name="Layer 1" xmlns="http://www.w3.org/2000/svg" viewBox="0 0 32 32">
  <title>
    rail_yard_32x32
  </title>
  <path stroke-linejoin="round" d="M.98 25.5h30m-.46-7H20.38l-2.32 3h-4.12l-2.01-3H1.48v-12h29.04v12z"/>
  <circle cx="3.98" cy="21" r="2.5" stroke-linejoin="round"/>
  <path d="M12.11 18.77A2.5 2.5 0 1 0 13.48 21a1.34 1.34 0 0 0 0-.2m6.82-2.19a2.41 2.41 0 0 1 .7-.11 2.5 2.5 0 1 1-2.5 2.5v-.1" stroke-linejoin="round"/>
  <circle cx="28.02" cy="21" r="2.5" stroke-linejoin="round"/>
  <path stroke-linejoin="round" d="M7.48 10v5m11.04-5v5m-5.04-5v5m11.04-5v5"/>
</svg>
