<svg id="Layer_1" data-name="Layer 1" xmlns="http://www.w3.org/2000/svg" viewBox="0 0 25.03 30.09"><title>boiler_32x32</title><ellipse cx="11" cy="3.5" rx="10.5" ry="3" fill="none" stroke="#4c6472" stroke-linejoin="round"/><line x1="21.5" y1="11.09" x2="21.5" y2="3.5" fill="none" stroke="#4c6472" stroke-linejoin="round"/><path d="M25.5,26v1.5c0,1.66-4.7,3-10.5,3s-10.5-1.34-10.5-3V4.41" transform="translate(-4 -0.91)" fill="none" stroke="#4c6472" stroke-linejoin="round"/><circle cx="11" cy="13" r="3.5" fill="none" stroke="#4c6472" stroke-linejoin="round"/><line x1="11" y1="13.5" x2="12.5" y2="11.5" fill="none" stroke="#4c6472" stroke-linejoin="round"/><path d="M28.53,20a3.53,3.53,0,0,1-7.07,0c0-2.05,1.58-2.61,1.58-4.29a10.43,10.43,0,0,1,1.68,2.24A4.42,4.42,0,0,0,25.84,14,7.38,7.38,0,0,1,28.53,20Z" transform="translate(-4 -0.91)" fill="none" stroke="#4c6472" stroke-linejoin="round"/></svg>