<svg id="Layer_1" data-name="Layer 1" xmlns="http://www.w3.org/2000/svg" viewBox="0 0 32 32"><title>condenser_32x32</title><path d="M19.57,29h-4V21.5c0-3,2.16-5.5,4.83-5.5h5.18v4h-4.3c-1.21,0-1.7,1.12-1.7,2.5Z" fill="none" stroke="#4c6472" stroke-linejoin="round"/><path d="M20.32,16h-7c-2.63,0-4.79,2.5-4.79,5.5V29h3.9V22.5c0-1.36.57-2.47,1.76-2.5" fill="none" stroke="#4c6472" stroke-linejoin="round"/><path d="M13.29,16h-7C3.66,16,1.5,18.5,1.5,21.5V29h4V22.5C5.5,21.14,6,20,7.16,20" fill="none" stroke="#4c6472" stroke-linejoin="round"/><path d="M6.77,14.5v-2C6.77,10,9.41,7,9.41,3H27.86c0,4,2.64,7,2.64,9.5V25H20.39" fill="none" stroke="#4c6472" stroke-linejoin="round"/></svg>