<svg id="Layer_1" data-name="Layer 1" xmlns="http://www.w3.org/2000/svg" viewBox="0 0 30.06 30"><title>cooling_tower_32x32</title><path d="M5.44,30.5h-4V16a5.5,5.5,0,0,1,5.5-5.5h5.5v4H7.94A2.5,2.5,0,0,0,5.44,17Z" transform="translate(-0.94 -1)" fill="none" stroke="#4c6472" stroke-linejoin="round"/><polygon points="14.06 6.5 12.06 0.5 24.06 0.5 22.06 6.5 14.06 6.5" fill="none" stroke="#4c6472" stroke-linejoin="round"/><polyline points="28.53 13 28.53 6.5 8.53 6.5 8.53 10" fill="none" stroke="#4c6472" stroke-linejoin="round"/><polyline points="8.58 14 8.58 29.5 28.58 29.5 28.58 23" fill="none" stroke="#4c6472" stroke-linejoin="round"/><path d="M31,15.5c-1.83,0-1.83,2-3.66,2s-1.83-2-3.67-2-1.83,2-3.67,2" transform="translate(-0.94 -1)" fill="none" stroke="#4c6472" stroke-linejoin="round"/><path d="M31,19.5c-1.83,0-1.83,2-3.66,2s-1.83-2-3.67-2-1.83,2-3.67,2" transform="translate(-0.94 -1)" fill="none" stroke="#4c6472" stroke-linejoin="round"/></svg>