<svg id="Layer_1" data-name="Layer 1" xmlns="http://www.w3.org/2000/svg" viewBox="0 0 29 30.19"><title>fleet_32x32</title><polygon points="21.5 25.52 21.5 17.17 14.5 13 7.5 17.17 7.5 25.52 14.5 29.69 21.5 25.52" fill="none" stroke="#4c6472" stroke-linejoin="round"/><polyline points="7.37 17.37 14.5 21.62 21.63 17.37" fill="none" stroke="#4c6472" stroke-linejoin="round"/><line x1="14.5" y1="29.85" x2="14.5" y2="21.85" fill="none" stroke="#4c6472" stroke-linejoin="round"/><polyline points="21.5 17.19 28.5 13.02 28.5 4.67 21.5 0.5 14.5 4.67" fill="none" stroke="#4c6472" stroke-linejoin="round"/><polyline points="14.37 4.87 21.5 9.12 28.63 4.87" fill="none" stroke="#4c6472" stroke-linejoin="round"/><line x1="21.5" y1="17.35" x2="21.5" y2="9.35" fill="none" stroke="#4c6472" stroke-linejoin="round"/><polyline points="14.5 4.67 7.5 0.5 0.5 4.67 0.5 13.02 7.5 17.19" fill="none" stroke="#4c6472" stroke-linejoin="round"/><polyline points="0.37 4.87 7.5 9.12 14.63 4.87" fill="none" stroke="#4c6472" stroke-linejoin="round"/><line x1="7.5" y1="17.35" x2="7.5" y2="9.35" fill="none" stroke="#4c6472" stroke-linejoin="round"/><line x1="14.5" y1="4.85" x2="14.5" y2="12.85" fill="none" stroke="#4c6472" stroke-linejoin="round"/></svg>