<?xml version="1.0" encoding="utf-8"?>
<!-- Generator: Adobe Illustrator 21.0.2, SVG Export Plug-In . SVG Version: 6.00 Build 0)  -->
<svg version="1.1" id="Layer_1" xmlns="http://www.w3.org/2000/svg" xmlns:xlink="http://www.w3.org/1999/xlink" x="0px" y="0px"
	 viewBox="0 0 32 32" style="enable-background:new 0 0 32 32;" xml:space="preserve">
<style type="text/css">
	.st0{fill:none;stroke:#4C6472;stroke-linecap:round;stroke-linejoin:round;}
</style>
<title>line_32x32</title>
<path class="st0" d="M2.5,9.2l6,2.8v8c0,0-6,3-6,2.8V9.2z"/>
<path class="st0" d="M14.5,9.2l-6,2.8v8c0,0,6,3,6,2.8V9.2z"/>
<path class="st0" d="M22.5,13.2l-5-3.2v12c1.7-1,3.4-2.1,5-3.2l7,5.2V8C29.5,8,22.5,13,22.5,13.2z"/>
<line class="st0" x1="30.5" y1="16" x2="29.5" y2="16"/>
<line class="st0" x1="17.5" y1="17" x2="14.5" y2="17"/>
<line class="st0" x1="17.5" y1="15" x2="14.5" y2="15"/>
<line class="st0" x1="2.5" y1="16" x2="1.5" y2="16"/>
<line class="st0" x1="22.5" y1="18.8" x2="22.5" y2="13.2"/>
</svg>
