<svg id="Layer_1" data-name="Layer 1" xmlns="http://www.w3.org/2000/svg" viewBox="0 0 32 32"><title>locomotive_32x32</title><line x1="1" y1="26" x2="31" y2="26" fill="none" stroke="#4c6472" stroke-miterlimit="10"/><polyline points="4 17 27.5 17 30.5 23 26.5 23 25.5 20 6.5 20 5.5 23 1.5 23 1.5 6 20.5 6 22.5 11 27.5 11 27.5 17" fill="none" stroke="#4c6472" stroke-linejoin="round"/><path d="M12,20a2.5,2.5,0,1,1-4,0" fill="none" stroke="#4c6472" stroke-miterlimit="10"/><path d="M18,20a2.5,2.5,0,1,1-4,0" fill="none" stroke="#4c6472" stroke-miterlimit="10"/><path d="M24,20a2.5,2.5,0,1,1-4,0" fill="none" stroke="#4c6472" stroke-miterlimit="10"/><path d="M21.44,8H16.56L17,9.55A1.63,1.63,0,0,0,18.44,11h4.5" fill="none" stroke="#4c6472" stroke-linejoin="round"/></svg>