<svg id="Layer_1" data-name="Layer 1" xmlns="http://www.w3.org/2000/svg" viewBox="0 0 26.85 29.92"><title>product_32x32</title><polygon points="26.35 21.58 26.35 8.4 13.43 0.56 0.5 8.4 0.5 21.58 13.43 29.41 26.35 21.58" fill="none" stroke="#4c6472" stroke-linejoin="round"/><line x1="4.26" y1="16.88" x2="8.75" y2="19.64" fill="none" stroke="#4c6472" stroke-linejoin="round"/><polyline points="26.35 9.31 26.35 8.34 13.43 0.5 0.5 8.34 0.5 8.84 0.5 8.37" fill="none" stroke="#4c6472" stroke-linejoin="round"/><polyline points="8.42 3.54 8.46 3.56 21.64 11.76" fill="none" stroke="#4c6472" stroke-linejoin="round"/><polyline points="5.74 5.42 5.78 5.44 18.96 13.64" fill="none" stroke="#4c6472" stroke-linejoin="round"/><polyline points="0.42 8.87 13.43 16.75 26.43 8.87" fill="none" stroke="#4c6472" stroke-linejoin="round"/><line x1="13.43" y1="16.82" x2="13.43" y2="29.5" fill="none" stroke="#4c6472" stroke-linejoin="round"/><polyline points="18.96 13.39 18.96 17.29 21.73 15.5 21.73 11.76" fill="none" stroke="#4c6472" stroke-linejoin="round"/></svg>