<svg id="Layer_1" data-name="Layer 1" xmlns="http://www.w3.org/2000/svg" viewBox="0 0 32 32"><title>rail_yard_32x32</title><line x1="0.98" y1="25.5" x2="30.98" y2="25.5" fill="none" stroke="#4c6472" stroke-linejoin="round"/><polygon points="30.52 18.5 20.38 18.5 18.06 21.5 13.94 21.5 11.93 18.5 1.48 18.5 1.48 6.5 30.52 6.5 30.52 18.5" fill="none" stroke="#4c6472" stroke-linejoin="round"/><circle cx="3.98" cy="21" r="2.5" fill="none" stroke="#4c6472" stroke-linejoin="round"/><path d="M12.11,18.77A2.5,2.5,0,1,0,13.48,21a1.34,1.34,0,0,0,0-.2" fill="none" stroke="#4c6472" stroke-linejoin="round"/><path d="M20.3,18.61A2.41,2.41,0,0,1,21,18.5a2.5,2.5,0,1,1-2.5,2.5v-.1" fill="none" stroke="#4c6472" stroke-linejoin="round"/><circle cx="28.02" cy="21" r="2.5" fill="none" stroke="#4c6472" stroke-linejoin="round"/><line x1="7.48" y1="10" x2="7.48" y2="15" fill="none" stroke="#4c6472" stroke-linejoin="round"/><line x1="18.52" y1="10" x2="18.52" y2="15" fill="none" stroke="#4c6472" stroke-linejoin="round"/><line x1="13.48" y1="10" x2="13.48" y2="15" fill="none" stroke="#4c6472" stroke-linejoin="round"/><line x1="24.52" y1="10" x2="24.52" y2="15" fill="none" stroke="#4c6472" stroke-linejoin="round"/></svg>