<svg id="Layer_1" data-name="Layer 1" xmlns="http://www.w3.org/2000/svg" viewBox="0 0 32 32"><title>steam_turbine_32x32</title><path d="M1.5,10.24,7.5,12v8c-1.62.6-4.38,1.19-6,1.79Z" fill="none" stroke="#4c6472" stroke-linecap="round" stroke-linejoin="round"/><path d="M25.5,10.25,20.5,8V24c1.62-.75,3.38-1.5,5-2.25l5,2.25V8C28.88,8.75,27.12,9.5,25.5,10.25Z" fill="none" stroke="#4c6472" stroke-linecap="round" stroke-linejoin="round"/><path d="M17.5,23l-6-2.25v-9.5c1.62-.75,4.38-1.5,6-2.25Z" fill="none" stroke="#4c6472" stroke-linecap="round" stroke-linejoin="round"/><line x1="11.5" y1="14" x2="7.5" y2="14" fill="none" stroke="#4c6472" stroke-linecap="round" stroke-linejoin="round"/><line x1="11.5" y1="18" x2="7.5" y2="18" fill="none" stroke="#4c6472" stroke-linecap="round" stroke-linejoin="round"/><line x1="31.5" y1="16" x2="30.5" y2="16" fill="none" stroke="#4c6472" stroke-linecap="round" stroke-linejoin="round"/><line x1="20.5" y1="18" x2="17.5" y2="18" fill="none" stroke="#4c6472" stroke-linecap="round" stroke-linejoin="round"/><line x1="20.5" y1="14" x2="17.5" y2="14" fill="none" stroke="#4c6472" stroke-linecap="round" stroke-linejoin="round"/><line x1="1.5" y1="16" x2="0.5" y2="16" fill="none" stroke="#4c6472" stroke-linecap="round" stroke-linejoin="round"/><line x1="25.5" y1="21.75" x2="25.5" y2="10.25" fill="none" stroke="#4c6472" stroke-linecap="round" stroke-linejoin="round"/></svg>