<?xml version="1.0" encoding="utf-8"?>
<!-- Generator: Adobe Illustrator 21.0.2, SVG Export Plug-In . SVG Version: 6.00 Build 0)  -->
<svg version="1.1" id="Layer_1" xmlns="http://www.w3.org/2000/svg" xmlns:xlink="http://www.w3.org/1999/xlink" x="0px" y="0px"
	 viewBox="0 0 32 32" style="enable-background:new 0 0 32 32;" xml:space="preserve">
<style type="text/css">
	.st0{fill:none;stroke:#4C6472;stroke-linejoin:round;}
</style>
<title>truck_32x32</title>
<line class="st0" x1="11.1" y1="25" x2="7.1" y2="25"/>
<polyline class="st0" points="16,25 19.5,25 19.5,10 24.4,10 30.5,17 30.5,25 28,25 "/>
<path class="st0" d="M21.6,16v-3h2.6l2.3,2.4c0.1,0.1,0.1,0.4,0,0.5C26.4,16,26.3,16,26.2,16H21.6z"/>
<line class="st0" x1="24" y1="25" x2="19" y2="25"/>
<circle class="st0" cx="5.1" cy="25.5" r="2.5"/>
<circle class="st0" cx="13.1" cy="25.5" r="2.5"/>
<circle class="st0" cx="26" cy="25.5" r="2.5"/>
<polyline class="st0" points="3.1,25 1.6,25 1.6,7 18,7 "/>
<path class="st0" d="M17.1,4h1c0.8,0,1.5,0.6,1.5,1.5c0,0,0,0,0,0v5"/>
</svg>
