<svg id="Layer_1" data-name="Layer 1" xmlns="http://www.w3.org/2000/svg" viewBox="0 0 30 30">
  <title>
    administration_32x32
  </title>
  <path d="M21.65 25.48l3 2.36 1.57-1.57 1.58-1.58-2.36-3a11.21 11.21 0 0 0 1.26-2.99l3.8-.47v-4.46l-3.8-.47a11.21 11.21 0 0 0-1.23-2.95l2.36-3-1.57-1.59-1.58-1.58-3 2.36A11.21 11.21 0 0 0 18.7 5.3l-.47-3.8h-4.47l-.46 3.8a11.21 11.21 0 0 0-2.95 1.23l-3-2.36-1.59 1.57-1.58 1.58 2.36 3A11.21 11.21 0 0 0 5.3 13.3l-3.8.47v4.46l3.8.47a11.21 11.21 0 0 0 1.23 2.95l-2.36 3 1.57 1.57 1.58 1.58 3-2.36" transform="translate(-1 -1)" stroke-linejoin="round"/>
  <path d="M22.08 16a6.1 6.1 0 0 0-3.74-5.61v6.08h-4.68v-6.08a6.07 6.07 0 0 0-.94 10.73v9.38h6.55v-9.39A6.08 6.08 0 0 0 22.08 16z" transform="translate(-1 -1)" stroke-linejoin="round"/>
</svg>
