<svg id="Layer_1" data-name="Layer 1" xmlns="http://www.w3.org/2000/svg" viewBox="0 0 29.09 31"><title>airport_32x32</title><polyline points="6.84 21.5 26.78 21.5 28.59 30.5 7.75 30.5" fill="none" stroke="#4c6472" stroke-linejoin="round"/><polyline points="3.22 12.5 0.5 9.5 9.56 9.5 6.84 12.5" fill="none" stroke="#4c6472" stroke-linejoin="round"/><line x1="1.06" y1="9.5" x2="1.06" y2="4.5" fill="none" stroke="#4c6472" stroke-linejoin="round"/><line x1="9.04" y1="9.5" x2="9.04" y2="4.5" fill="none" stroke="#4c6472" stroke-linejoin="round"/><line x1="0.05" y1="4.5" x2="10.02" y2="4.5" fill="none" stroke="#4c6472" stroke-linejoin="round"/><line x1="5.03" y1="4.5" x2="5.03" fill="none" stroke="#4c6472" stroke-linejoin="round"/><line x1="26.33" y1="21.5" x2="29.05" y2="21.5" fill="none" stroke="#4c6472" stroke-linejoin="round"/><path d="M16.61,16l-3.33-4.9,3.29.45,9.37-6.89A2.8,2.8,0,0,1,30,5.54v.09l-5.73,4.62,1,5.77-2,1.85-2-5.44Z" transform="translate(-1.45)" fill="none" stroke="#4c6472" stroke-linejoin="round"/><polyline points="20.95 7.28 15.72 4.73 13.59 6.26 17.75 9.63" fill="none" stroke="#4c6472" stroke-linejoin="round"/><polygon points="7.05 27.5 7.05 12.5 3.08 12.5 3.08 27.5 1.41 27.5 0.5 30.5 3.22 30.5 6.84 30.5 9.56 30.5 8.66 27.5 7.05 27.5" fill="none" stroke="#4c6472" stroke-linejoin="round"/></svg>