<svg id="Layer_1" data-name="Layer 1" xmlns="http://www.w3.org/2000/svg" viewBox="0 0 32 32"><title>airplane_engine_32x32</title><path d="M12.9,28H7.4a.68.68,0,0,1-.7-.7,48,48,0,0,1,0-22.6A.68.68,0,0,1,7.4,4H13A47.6,47.6,0,0,0,12.9,28Z" fill="none" stroke="#4c6472" stroke-linecap="round" stroke-linejoin="round"/><path d="M14,21.2a44.05,44.05,0,0,1-.3-5.2,45.33,45.33,0,0,1,.3-5.2" fill="none" stroke="#4c6472" stroke-linecap="round" stroke-linejoin="round"/><path d="M11.4,28h1.7a.68.68,0,0,0,.7-.7,41,41,0,0,0,1.1-6.1" fill="none" stroke="#4c6472" stroke-miterlimit="10"/><path d="M11.4,4h1.7a.68.68,0,0,1,.7.7,59.72,59.72,0,0,1,1.1,6.1" fill="none" stroke="#4c6472" stroke-linecap="round" stroke-linejoin="round"/><line x1="14.1" y1="11" x2="21.3" y2="9" fill="none" stroke="#4c6472" stroke-miterlimit="10"/><line x1="14.1" y1="21" x2="21.3" y2="23" fill="none" stroke="#4c6472" stroke-miterlimit="10"/><line x1="14.1" y1="14" x2="21.3" y2="14" fill="none" stroke="#4c6472" stroke-miterlimit="10"/><line x1="14.1" y1="18" x2="21.3" y2="18" fill="none" stroke="#4c6472" stroke-miterlimit="10"/><line x1="21.5" y1="8" x2="21.5" y2="24" fill="none" stroke="#4c6472" stroke-linecap="round" stroke-miterlimit="10"/><path d="M21.6,20.9s2.3,2,5.3-1V12c-3-3-5.3-1-5.3-1" fill="none" stroke="#4c6472" stroke-linecap="round" stroke-miterlimit="10"/><polyline points="26.9 14 30.8 16 26.9 18" fill="none" stroke="#4c6472" stroke-linecap="round" stroke-linejoin="round"/><path d="M5.2,18.8l-3-1.5a1.73,1.73,0,0,1-.5-2.2c.1-.2.3-.3.5-.5l3-1.5" fill="none" stroke="#4c6472" stroke-linecap="round" stroke-linejoin="round"/></svg>