<svg id="Layer_1" data-name="Layer 1" xmlns="http://www.w3.org/2000/svg" viewBox="0 0 23.89 31.47"><title>Cellular_32x32</title><circle cx="12.09" cy="6.47" r="1.5" fill="none" stroke="#4c6472" stroke-linejoin="round"/><path d="M7.61,12.65a7.47,7.47,0,0,1,0-12" transform="translate(-3.39 -0.25)" fill="none" stroke="#4c6472" stroke-linejoin="round"/><path d="M11.37,9.77a3.5,3.5,0,0,1,0-6.22" transform="translate(-3.39 -0.25)" fill="none" stroke="#4c6472" stroke-linejoin="round"/><path d="M23.54.67a7.47,7.47,0,0,1,0,12" transform="translate(-3.39 -0.25)" fill="none" stroke="#4c6472" stroke-linejoin="round"/><path d="M19.75,3.55a3.5,3.5,0,0,1,0,6.22" transform="translate(-3.39 -0.25)" fill="none" stroke="#4c6472" stroke-linejoin="round"/><line x1="12.1" y1="8.02" x2="0.45" y2="30.97" fill="none" stroke="#4c6472" stroke-linejoin="round"/><line x1="12.19" y1="8.11" x2="23.45" y2="30.97" fill="none" stroke="#4c6472" stroke-linejoin="round"/><line x1="3.45" y1="24.97" x2="20.45" y2="24.97" fill="none" stroke="#4c6472" stroke-linejoin="round"/><line x1="7.45" y1="16.97" x2="16.45" y2="16.97" fill="none" stroke="#4c6472" stroke-linejoin="round"/><line x1="12.15" y1="8.47" x2="12.15" y2="31.47" fill="none" stroke="#4c6472" stroke-linejoin="round"/></svg>