<?xml version="1.0" encoding="utf-8"?>
<!-- Generator: Adobe Illustrator 21.0.2, SVG Export Plug-In . SVG Version: 6.00 Build 0)  -->
<svg version="1.1" id="Layer_1" xmlns="http://www.w3.org/2000/svg" xmlns:xlink="http://www.w3.org/1999/xlink" x="0px" y="0px"
	 viewBox="0 0 32 32" style="enable-background:new 0 0 32 32;" xml:space="preserve">
<style type="text/css">
	.st0{fill:none;stroke:#4C6472;stroke-linejoin:round;}
	.st1{fill:none;stroke:#4C6472;stroke-linecap:round;stroke-linejoin:round;}
</style>
<title>gas_turbine_32x32</title>
<line class="st0" x1="5.5" y1="8.4" x2="10.5" y2="11"/>
<line class="st0" x1="5.5" y1="25.5" x2="5.5" y2="6.5"/>
<line class="st0" x1="5.5" y1="23.6" x2="10.5" y2="21"/>
<path class="st1" d="M5.5,21l-3,1.5c-1.3-4.2-1.3-8.8,0-13l3,1.5"/>
<rect x="9.6" y="11" class="st1" width="5.9" height="10"/>
<path class="st1" d="M22.5,21.3l6,3.2c2.7-5.4,2.7-11.6,0-17c-2.3,1.1-3.7,2.1-6,3.2V21.3z"/>
<rect x="15.5" y="8" class="st1" width="3" height="4"/>
<rect x="18.5" y="9" class="st1" width="4" height="2"/>
<rect x="15.5" y="14" class="st1" width="3" height="4"/>
<rect x="18.5" y="15" class="st1" width="4" height="2"/>
<rect x="15.5" y="20" class="st1" width="3" height="4"/>
<rect x="18.5" y="21" class="st1" width="4" height="2"/>
</svg>
