<svg id="Layer_1" data-name="Layer 1" xmlns="http://www.w3.org/2000/svg" viewBox="0 0 24 29.81"><title>machine_32x32</title><path d="M4.5,18.81C4.5,9.25,9.65,1.5,16,1.5S27.5,9.25,27.5,18.81" transform="translate(-4 -1)" fill="none" stroke="#4c6472" stroke-miterlimit="10"/><circle cx="12" cy="17.81" r="2.34" fill="none" stroke="#4c6472" stroke-miterlimit="10"/><path d="M16,30.31a11.5,11.5,0,1,1,11.5-11.5A11.51,11.51,0,0,1,16,30.31Z" transform="translate(-4 -1)" fill="none" stroke="#4c6472" stroke-miterlimit="10"/><path d="M15.59,16.32c-1.74-2.2-1.12-5.93-1.12-5.93" transform="translate(-4 -1)" fill="none" stroke="#4c6472" stroke-miterlimit="10"/><path d="M17.47,16.75c.32-2.79,3.4-5,3.4-5" transform="translate(-4 -1)" fill="none" stroke="#4c6472" stroke-miterlimit="10"/><path d="M18.49,18.39c2.2-1.74,5.93-1.12,5.93-1.12" transform="translate(-4 -1)" fill="none" stroke="#4c6472" stroke-miterlimit="10"/><path d="M18.05,20.27c2.79.32,5,3.4,5,3.4" transform="translate(-4 -1)" fill="none" stroke="#4c6472" stroke-miterlimit="10"/><path d="M16.41,21.29c1.74,2.2,1.12,5.93,1.12,5.93" transform="translate(-4 -1)" fill="none" stroke="#4c6472" stroke-miterlimit="10"/><path d="M14.53,20.86c-.32,2.79-3.4,5-3.4,5" transform="translate(-4 -1)" fill="none" stroke="#4c6472" stroke-miterlimit="10"/><path d="M13.51,19.22c-2.2,1.74-5.93,1.12-5.93,1.12" transform="translate(-4 -1)" fill="none" stroke="#4c6472" stroke-miterlimit="10"/><path d="M13.95,17.34c-2.79-.32-5-3.4-5-3.4" transform="translate(-4 -1)" fill="none" stroke="#4c6472" stroke-miterlimit="10"/></svg>