<svg id="Layer_1" data-name="Layer 1" xmlns="http://www.w3.org/2000/svg" viewBox="0 0 30 30.14"><title>hrsg_32x32</title><rect x="22.5" y="7.64" width="7" height="22" fill="none" stroke="#4c6472" stroke-linecap="round" stroke-linejoin="round"/><polyline points="20.5 13.56 9.5 13.56 0.5 22.64 0.5 29.64 22.5 29.64" fill="none" stroke="#4c6472" stroke-linejoin="round"/><line x1="22.5" y1="10.64" x2="29.5" y2="10.64" fill="none" stroke="#4c6472" stroke-linecap="round" stroke-linejoin="round"/><path d="M17.42,1.4c0,5,9,2,9,6v-3s0-3-4-3Z" transform="translate(-0.92 -0.9)" fill="none" stroke="#4c6472" stroke-linecap="round" stroke-linejoin="round"/><path d="M19.92,19.55c-1.83,0-1.83,2-3.66,2s-1.83-2-3.67-2-1.83,2-3.67,2" transform="translate(-0.92 -0.9)" fill="none" stroke="#4c6472" stroke-miterlimit="10"/><path d="M19.92,23.55c-1.83,0-1.83,2-3.66,2s-1.83-2-3.67-2-1.83,2-3.67,2" transform="translate(-0.92 -0.9)" fill="none" stroke="#4c6472" stroke-miterlimit="10"/></svg>