<?xml version="1.0" encoding="utf-8"?>
<!-- Generator: Adobe Illustrator 21.0.2, SVG Export Plug-In . SVG Version: 6.00 Build 0)  -->
<svg version="1.1" id="Layer_1" xmlns="http://www.w3.org/2000/svg" xmlns:xlink="http://www.w3.org/1999/xlink" x="0px" y="0px"
	 viewBox="0 0 32 32" style="enable-background:new 0 0 32 32;" xml:space="preserve">
<style type="text/css">
	.st0{fill:none;stroke:#4C6472;stroke-linecap:round;stroke-linejoin:round;}
	.st1{fill:none;stroke:#4C6472;stroke-linejoin:round;}
</style>
<title>light_bulb_32x32</title>
<path class="st0" d="M24.5,10c0-4.7-3.8-8.5-8.5-8.5c-4.7,0-8.5,3.8-8.5,8.5c0,2.6,1.2,5.1,3.3,6.7c1.1,0.8,1.7,2,1.7,3.4v6.7
	c0,0.4,0.3,0.7,0.7,0.7h5.6c0.4,0,0.7-0.3,0.7-0.7v-6.7c0-1.4,0.7-2.6,1.8-3.4C23.3,15.1,24.5,12.6,24.5,10z"/>
<path class="st1" d="M18.5,28c0,1.4-1.1,2.5-2.5,2.5s-2.5-1.1-2.5-2.5"/>
<line class="st0" x1="12.5" y1="21.5" x2="19.5" y2="21.5"/>
<line class="st0" x1="12.5" y1="24.5" x2="19.5" y2="24.5"/>
</svg>
