<svg id="Layer_1" data-name="Layer 1" xmlns="http://www.w3.org/2000/svg" viewBox="0 0 32 32"><title>Object_Sensor_32x32</title><polyline points="22.53 12.89 22.53 10.66 14.53 5.89 6.53 10.66 6.53 20.2 14.53 24.97 22.53 20.2 22.53 18.09" fill="none" stroke="#4c6472" stroke-linejoin="round"/><path d="M16.73,15.43h0a2,2,0,0,1-2,2h0a2,2,0,0,1-2-2h0a2,2,0,0,1,2-2h0A2,2,0,0,1,16.73,15.43Z" fill="none" stroke="#4c6472" stroke-linejoin="round"/><line x1="16.7" y1="15.43" x2="30.85" y2="15.43" fill="none" stroke="#4c6472" stroke-linejoin="round"/><path d="M26.93,19A12.84,12.84,0,0,1,14.5,28.43a13,13,0,0,1,0-26A12.79,12.79,0,0,1,27,11.88" fill="none" stroke="#4c6472" stroke-linejoin="round"/></svg>