<svg id="Layer_1" data-name="Layer 1" xmlns="http://www.w3.org/2000/svg" viewBox="0 0 29 28.85"><title>bug_32x32</title><line x1="6.17" y1="17.85" y2="17.85" fill="none" stroke="#4c6472" stroke-linejoin="round"/><path d="M10.89,8.94a5.61,5.61,0,0,1,11.23,0" transform="translate(-2 -1.65)" fill="none" stroke="#4c6472" stroke-linejoin="round"/><path d="M17,30c4.21,0,8-2.5,8-8.5a25.08,25.08,0,0,0-2.81-11H10.89a25.08,25.08,0,0,0-2.81,11c0,6,3.74,8.5,8,8.5Z" transform="translate(-2 -1.65)" fill="none" stroke="#4c6472" stroke-linejoin="round"/><line x1="10.76" y1="3.08" x2="8.89" y2="0.28" fill="none" stroke="#4c6472" stroke-linejoin="round"/><line x1="18.25" y1="3.08" x2="20.12" y2="0.28" fill="none" stroke="#4c6472" stroke-linejoin="round"/><path d="M3.87,29.06A6.44,6.44,0,0,1,8.6,24.94" transform="translate(-2 -1.65)" fill="none" stroke="#4c6472" stroke-linejoin="round"/><path d="M3.87,10.74A6.13,6.13,0,0,0,9.06,15" transform="translate(-2 -1.65)" fill="none" stroke="#4c6472" stroke-linejoin="round"/><line x1="29" y1="17.85" x2="22.84" y2="17.85" fill="none" stroke="#4c6472" stroke-linejoin="round"/><path d="M24.41,24.94a6.46,6.46,0,0,1,4.72,4.13" transform="translate(-2 -1.65)" fill="none" stroke="#4c6472" stroke-linejoin="round"/><path d="M24,15a6.14,6.14,0,0,0,5.17-4.27" transform="translate(-2 -1.65)" fill="none" stroke="#4c6472" stroke-linejoin="round"/><line x1="14.5" y1="12.42" x2="14.5" y2="28.35" fill="none" stroke="#4c6472" stroke-linejoin="round"/></svg>